<svg width="19.000000" height="19.000000" viewBox="0 0 19 19" fill="none" xmlns="http://www.w3.org/2000/svg" xmlns:xlink="http://www.w3.org/1999/xlink">
	<desc>
			Created with Pixso.
	</desc>
	<defs/>
	<path id="Shape" d="M11.7236 2.22412L16.1943 2.22412C16.8096 2.22412 17.3125 2.72705 17.3125 3.3418L17.3125 4.45935L1.66504 4.45935L1.66504 3.3418C1.66504 2.72705 2.16797 2.22412 2.78223 2.22412L7.25293 2.22412C7.25293 1.60938 7.75586 1.10645 8.37109 1.10645L10.6064 1.10645C11.2207 1.10645 11.7236 1.60938 11.7236 2.22412ZM2.22363 5.5769L16.7529 5.5769C17.0664 5.5769 17.3125 5.82275 17.3125 6.13574C17.3125 6.44873 17.0664 6.69458 16.7529 6.69458L16.1943 6.69458L16.1943 17.871C16.1943 18.4857 15.6914 18.9886 15.0771 18.9886L3.90039 18.9886C3.28516 18.9886 2.78223 18.4857 2.78223 17.871L2.78223 6.69458L2.22363 6.69458C1.91113 6.69458 1.66504 6.44873 1.66504 6.13574C1.66504 5.82275 1.91113 5.5769 2.22363 5.5769ZM7.25293 15.636C7.25293 16.2507 6.75 16.7537 6.13477 16.7537C5.52051 16.7537 5.01758 16.2507 5.01758 15.636L5.01758 8.93005C5.01758 8.31543 5.52051 7.8125 6.13477 7.8125C6.75 7.8125 7.25293 8.31543 7.25293 8.93005L7.25293 15.636ZM9.48828 16.7537C10.1025 16.7537 10.6055 16.2507 10.6055 15.636L10.6055 8.93005C10.6055 8.31543 10.1025 7.8125 9.48828 7.8125C8.87305 7.8125 8.37012 8.31543 8.37012 8.93005L8.37012 15.636C8.37012 16.2507 8.87305 16.7537 9.48828 16.7537ZM13.959 15.636C13.959 16.2507 13.4561 16.7537 12.8408 16.7537C12.2266 16.7537 11.7236 16.2507 11.7236 15.636L11.7236 8.93005C11.7236 8.31543 12.2266 7.8125 12.8408 7.8125C13.4561 7.8125 13.959 8.31543 13.959 8.93005L13.959 15.636Z" clip-rule="evenodd" fill="#4D5154" fill-opacity="1.000000" fill-rule="evenodd"/>
</svg>
