<svg width="23.000000" height="23.074707" viewBox="0 0 23 23.0747" fill="none" xmlns="http://www.w3.org/2000/svg" xmlns:xlink="http://www.w3.org/1999/xlink">
	<desc>
			Created with Pixso.
	</desc>
	<defs/>
	<rect id="2 Elements/Icons/Clip/Filled/Grey" width="23.000000" height="23.074757" fill="#FFFFFF" fill-opacity="0"/>
	<path id="Fill 1" d="M2.6 19.85C1.48 18.72 0.89 17.21 0.96 15.6C1.03 13.85 1.88 12.11 3.4 10.58L10.15 3.81C10.52 3.43 11.13 3.43 11.5 3.81C11.88 4.18 11.88 4.79 11.5 5.17L4.76 11.94C2.22 14.48 2.53 17.06 3.96 18.49C5.38 19.92 8.06 20.31 10.58 17.78L19.41 8.92C20.5 7.83 20.96 6.59 20.67 5.52C20.46 4.73 19.87 4.13 19.09 3.92C18.04 3.64 16.81 4.11 15.71 5.21L7.56 13.39C6.35 14.6 6.18 15.5 6.27 15.84C6.3 15.94 6.35 16.04 6.54 16.09C7.03 16.22 7.99 15.89 9.02 14.85L15.09 8.77C15.46 8.39 16.07 8.39 16.44 8.77C16.82 9.14 16.82 9.75 16.44 10.12L10.37 16.21C8.93 17.67 7.35 18.3 6.04 17.95C5.23 17.73 4.64 17.14 4.42 16.34C4.09 15.07 4.73 13.5 6.2 12.03L14.36 3.85C15.95 2.25 17.85 1.6 19.59 2.06C21.03 2.46 22.13 3.56 22.52 5.02C22.99 6.78 22.35 8.69 20.77 10.28L11.94 19.14C8.64 22.45 4.75 22 2.6 19.85Z" fill="#4D5154" fill-opacity="1.000000" fill-rule="evenodd"/>
</svg>
